<svg viewBox="0 0 200 270" xmlns="http://www.w3.org/2000/svg" role="img" aria-label="Aphrodite Research monogram">
  <defs>
    <linearGradient id="arGold" x1="0" y1="0" x2="0.3" y2="1">
      <stop offset="0" stop-color="#e6c684"/>
      <stop offset="0.5" stop-color="#c9a35b"/>
      <stop offset="1" stop-color="#8f6f38"/>
    </linearGradient>
  </defs>
  <g stroke="url(#arGold)" stroke-linecap="round" fill="none">
    <line x1="100" y1="22" x2="100" y2="4" stroke-width="2"/>
    <line x1="87" y1="25" x2="80" y2="10" stroke-width="1.7"/>
    <line x1="113" y1="25" x2="120" y2="10" stroke-width="1.7"/>
    <line x1="76" y1="32" x2="65" y2="20" stroke-width="1.5"/>
    <line x1="124" y1="32" x2="135" y2="20" stroke-width="1.5"/>
    <line x1="69" y1="41" x2="55" y2="33" stroke-width="1.3"/>
    <line x1="131" y1="41" x2="145" y2="33" stroke-width="1.3"/>
  </g>
  <path d="M100 44 L109 57 L100 70 L91 57 Z" fill="url(#arGold)"/>
  <path d="M100 49 L104.5 57 L100 65 L95.5 57 Z" fill="#0a0a0d"/>
  <g fill="url(#arGold)">
    <path d="M54 244 L98 92 L110 92 L70 244 Z"/>
    <path d="M104 92 L116 92 L124 244 L114 244 Z"/>
    <path d="M82 178 Q104 169 124 178 L124 185 Q104 176 82 185 Z"/>
    <path d="M114 98 Q160 98 160 138 Q160 174 118 178 L118 169 Q150 166 150 138 Q150 108 114 108 Z"/>
    <path d="M132 172 Q148 208 184 234 L177 243 Q137 216 120 180 Z"/>
  </g>
  <g stroke="url(#arGold)" stroke-linecap="round" fill="none">
    <line x1="70" y1="258" x2="90" y2="258" stroke-width="1.5"/>
    <line x1="110" y1="258" x2="130" y2="258" stroke-width="1.5"/>
  </g>
  <path d="M100 250 L106 258 L100 266 L94 258 Z" fill="url(#arGold)"/>
  <path d="M100 253 L103.5 258 L100 263 L96.5 258 Z" fill="#0a0a0d"/>
</svg>
